<svg width="22" height="36" viewBox="0 0 22 36" fill="none" xmlns="http://www.w3.org/2000/svg">
<g id="css-file 1" clip-path="url(#clip0_160_141)">
<path id="Vector" d="M15.3005 4.31506H4.10524C2.46971 4.31506 1.13851 5.6451 1.13851 7.27726V18.2307H0.848693C0.188584 18.2307 -0.346649 18.7647 -0.346649 19.4243V26.6632C-0.346649 27.3228 0.188584 27.8569 0.848693 27.8569H1.13851V29.1842C1.13851 30.8181 2.46977 32.1464 4.10524 32.1464H19.3808C21.0153 32.1464 22.3466 30.8181 22.3466 29.1842V11.3257L15.3005 4.31506ZM5.36297 24.8191C5.70609 24.8191 6.0865 24.7446 6.3107 24.6555L6.48188 25.5415C6.27323 25.6461 5.8031 25.7581 5.19172 25.7581C3.45334 25.7581 2.55811 24.6782 2.55811 23.248C2.55811 21.535 3.78172 20.5816 5.30342 20.5816C5.89288 20.5816 6.34029 20.7007 6.5416 20.8045L6.3107 21.706C6.07921 21.6087 5.75852 21.5196 5.35574 21.5196C4.45276 21.5196 3.75166 22.0635 3.75166 23.1808C3.75166 24.186 4.34846 24.8191 5.36297 24.8191ZM19.3807 30.3323H4.10524C3.47196 30.3323 2.95621 29.8174 2.95621 29.1842V27.8569H17.1961C17.8564 27.8569 18.3917 27.3228 18.3917 26.6632V19.4243C18.3917 18.7647 17.8564 18.2307 17.1961 18.2307H2.95621V7.27726C2.95621 6.64581 3.47196 6.13091 4.10524 6.13091L14.6209 6.12V10.001C14.6209 11.1345 15.542 12.0552 16.6782 12.0552L20.4859 12.0444L20.5287 29.1842C20.5287 29.8174 20.0139 30.3323 19.3807 30.3323ZM8.48377 23.5756C7.64814 23.2854 7.10337 22.8232 7.10337 22.0935C7.10337 21.2364 7.81944 20.5815 9.00576 20.5815C9.5725 20.5815 9.99078 20.7006 10.2887 20.8344L10.0354 21.7506C9.83405 21.6541 9.4759 21.5121 8.98345 21.5121C8.491 21.5121 8.25229 21.736 8.25229 21.9963C8.25229 22.3165 8.53563 22.4584 9.18481 22.704C10.0728 23.0316 10.4905 23.4937 10.4905 24.2015C10.4905 25.043 9.84128 25.7581 8.46134 25.7581C7.88685 25.7581 7.31971 25.6089 7.03636 25.4524L7.26773 24.5144C7.5735 24.6709 8.04364 24.8265 8.52834 24.8265C9.05045 24.8265 9.32651 24.6108 9.32651 24.2833C9.32657 23.9704 9.08786 23.7912 8.48377 23.5756ZM12.5143 23.5756C11.6788 23.2854 11.1339 22.8232 11.1339 22.0935C11.1339 21.2364 11.85 20.5815 13.0363 20.5815C13.6036 20.5815 14.0208 20.7006 14.3196 20.8344L14.066 21.7506C13.8645 21.6541 13.5065 21.5121 13.014 21.5121C12.5215 21.5121 12.2828 21.736 12.2828 21.9963C12.2828 22.3165 12.5662 22.4584 13.2154 22.704C14.1033 23.0316 14.5212 23.4937 14.5212 24.2015C14.5212 25.043 13.872 25.7581 12.492 25.7581C11.9175 25.7581 11.3503 25.6089 11.0669 25.4524L11.2984 24.5144C11.6041 24.6709 12.0742 24.8265 12.5589 24.8265C13.081 24.8265 13.3571 24.6108 13.3571 24.2833C13.3571 23.9704 13.1183 23.7912 12.5143 23.5756Z" fill="#2A7AE4"/>
</g>
<defs>
<clipPath id="clip0_160_141">
<rect width="22" height="35.5385" fill="white" transform="translate(0 0.461548)"/>
</clipPath>
</defs>
</svg>
